<svg xmlns="http://www.w3.org/2000/svg" xmlns:xlink="http://www.w3.org/1999/xlink" width="287pt" height="112pt" viewBox="0 0 287 112"><defs><symbol overflow="visible" id="k"><path style="stroke:none" d="M9.14-7.61v-.202H6.767v.203c.64.062.843.187.843.546 0 .188-.296 1.375-.875 3.422l-.156.594C6.047-1.094 5.281-.28 3.968-.28c-1 0-1.671-.563-1.671-1.406 0-.407.36-1.813 1.172-4.61l.062-.234c.25-.828.438-1 1.25-1.078v-.204H1.516v.204c.812.062.937.14.937.484 0 .14-.031.328-.094.531l-.625 2.297C1.36-2.984 1.22-2.25 1.22-1.75 1.22-.61 2.313.219 3.83.219c1.562 0 2.562-.86 3.077-2.64l1-3.407c.453-1.563.5-1.625 1.235-1.781zm0 0"/></symbol><symbol overflow="visible" id="l"><path style="stroke:none" d="M5.063-7.328c0-.438-.438-.781-1.016-.781-.578 0-1.031.25-1.469.78-.36.485-.625 1.048-.969 2.22H.5l-.078.375H1.5L.437.28C.172 1.578-.219 2.22-.718 2.22c-.14 0-.234-.078-.234-.188 0-.047.015-.078.047-.125a.344.344 0 0 0 .062-.203.467.467 0 0 0-.469-.453c-.25 0-.437.219-.437.5 0 .406.406.719.938.719 1.062 0 1.89-1.172 2.39-3.375l.86-3.828h1.296l.079-.375H2.516C2.875-7 3.312-7.844 3.984-7.844c.157 0 .266.063.266.157 0 0-.016.062-.047.109a.393.393 0 0 0-.078.25c0 .281.172.484.438.484a.49.49 0 0 0 .5-.484zm0 0"/></symbol><symbol overflow="visible" id="m"><path style="stroke:none" d="M4.61.719c0-.75-.579-1.281-1.735-1.578-.516-.125-.828-.329-.828-.5 0-.188.265-.5.422-.5 0 0 .047 0 .094.015.093.032.265.032.359.032 1.094 0 2.187-.954 2.187-1.875 0-.204-.03-.438-.093-.688h.593l-.015-.469h-.735c-.03 0-.093-.015-.187-.093-.328-.22-.719-.329-1.172-.329-1.328 0-2.39.922-2.39 2.032.015.625.28.984.952 1.296-.687.485-.906.72-.906 1 0 .157.11.297.344.47C.344.281.11.531.11 1.061c0 .86.78 1.407 2 1.407 1.515 0 2.5-.719 2.5-1.75zm-.72.36c0 .64-.671 1.124-1.593 1.124C1.344 2.203.766 1.75.766.984c0-.296.062-.5.25-.718.156-.204.656-.594.75-.594 0 0 .046 0 .062.016l.344.109C3.437.187 3.89.53 3.89 1.078zm-.078-3.891c-.265.5-.64.75-1.046.75-.454 0-.704-.344-.704-.907 0-1.094.657-2.047 1.422-2.047.454 0 .672.297.688.86 0 .422-.14.937-.36 1.343zm0 0"/></symbol><symbol overflow="visible" id="n"><path style="stroke:none" d="M5.61-3.781c0-.922-.516-1.485-1.376-1.485-.78 0-1.359.375-2.046 1.344l.374-1.297s-.03-.047-.062-.047h-.016l-1.843.25.03.188c.36 0 .782 0 .782.328 0 .14-.422 1.781-.86 3.375l-.687 2.672c-.125.562-.281.703-.797.719v.187h2.438v-.187c-.563 0-.766-.094-.766-.36 0-.156.203-1.062.453-1.984.297.156.516.203.782.203 1.75 0 3.593-1.984 3.593-3.906zm-1.079.047c0 .78-.328 1.78-.828 2.5-.515.75-1.094 1.14-1.734 1.14-.328 0-.563-.187-.563-.437 0-.406.407-1.969.766-2.86.312-.796.984-1.359 1.562-1.359h.063c.5.016.734.328.734 1.016zm0 0"/></symbol><symbol overflow="visible" id="o"><path style="stroke:none" d="M10.828-7.61v-.202H8.625v.203c.656.062.766.14.766.468 0 .204-.079.485-.25.813l-2.235 4.39-.468-4.796-.016-.172c0-.5.172-.64.812-.703v-.204H4.391v.204c.687.015.812.109.89.687l.11.828-2.063 4.157-.515-4.86-.016-.156c0-.469.14-.578.875-.656v-.204H.844v.204c.39.046.5.078.61.171.155.141.202.344.343 1.47L2.53.218h.235L5.422-5.22h.047l.61 5.44h.234l3.625-6.97c.312-.61.437-.719.89-.86zm0 0"/></symbol><symbol overflow="visible" id="r"><path style="stroke:none" d="M8.219-7.61v-.202H6v.203c.531.062.75.171.75.406 0 .219-.219.719-.625 1.422l-2.453 4.25-.797-5.297V-7c0-.406.156-.531.922-.61v-.202H.907v.203c.671.078.702.109.952 1.609L2.875.219h.219l4.453-7.36c.203-.312.406-.468.672-.468zm0 0"/></symbol><symbol overflow="visible" id="t"><path style="stroke:none" d="M5.094-4.61a.66.66 0 0 0-.657-.656c-.28 0-.468.172-.468.438 0 .187.094.312.328.469.234.125.312.234.312.406 0 .469-.421 1.39-1.453 3.094L2.922-2.25c-.188-1.063-.86-3.016-1.031-3.016h-.157l-1.171.204-.391.078v.203c.156-.032.25-.047.375-.047.484 0 .703.172.922.766.328.812.984 3.484.984 3.968a.982.982 0 0 1-.125.422c-.094.156-.625.86-.844 1.078-.28.297-.421.407-.578.407-.078 0-.156-.047-.281-.141-.188-.14-.297-.203-.453-.203a.457.457 0 0 0-.453.468c0 .313.25.532.61.532C1 2.469 2.296 1.094 3.53-.97c1-1.656 1.563-2.969 1.563-3.64zm0 0"/></symbol><symbol overflow="visible" id="u"><path style="stroke:none" d="m4.969-1.234-.157-.094c-.109.125-.156.187-.265.328-.281.36-.406.469-.563.469-.171 0-.28-.156-.359-.485a1.405 1.405 0 0 1-.047-.187c-.297-1.125-.437-1.766-.437-1.953.53-.922.953-1.453 1.171-1.453.079 0 .188.046.297.109.141.078.22.094.329.094.234 0 .406-.172.406-.422 0-.266-.203-.438-.485-.438-.53 0-.968.422-1.812 1.704l-.125-.657c-.172-.812-.297-1.047-.625-1.047-.281 0-.656.094-1.406.344l-.125.047.046.172.204-.047c.234-.063.375-.078.468-.078.297 0 .375.11.532.828l.343 1.469-.968 1.39c-.25.36-.485.579-.61.579a.58.58 0 0 1-.312-.11.875.875 0 0 0-.39-.11.394.394 0 0 0-.407.407c0 .313.234.5.61.5.359 0 .5-.094 1.109-.813l1.078-1.421.36 1.437c.14.625.296.797.687.797.453 0 .765-.281 1.453-1.36zm0 0"/></symbol><symbol overflow="visible" id="p"><path style="stroke:none" d="M6.594-3.938v-.671H.484v.671zm0 2.422v-.671H.484v.671zm0 0"/></symbol><symbol overflow="visible" id="q"><path style="stroke:none" d="M3.531-8.578C1.797-7.453.578-5.516.578-3.078c0 2.234 1.266 4.484 2.906 5.5l.157-.203C2.062.984 1.609-.47 1.609-3.11c0-2.657.485-4.032 2.032-5.266zm0 0"/></symbol><symbol overflow="visible" id="s"><path style="stroke:none" d="m.453-8.578-.11.203c1.548 1.234 2.032 2.61 2.032 5.266 0 2.64-.453 4.093-2.031 5.328l.14.203c1.657-1.016 2.922-3.266 2.922-5.5 0-2.438-1.219-4.375-2.953-5.5zm0 0"/></symbol><clipPath id="a"><path d="M.059 0H103v111H.059zm0 0"/></clipPath><clipPath id="b"><path d="M.059 0H103v111.55H.059zm0 0"/></clipPath><clipPath id="c"><path d="M31 31h183v18H31zm0 0"/></clipPath><clipPath id="d"><path d="M.059 111.55h287v-113h-287zm213.925-63.374-.312.82-12.79-2.707 11.59 1.762-9.382-6.992zm0 0"/></clipPath><clipPath id="e"><path d="M37 62h183v16H37zm0 0"/></clipPath><clipPath id="f"><path d="M.059 111.55h287v-113h-287zm219.593-35.027-.312.817-12.914-1.762 11.652.883-9.824-6.3zm0 0"/></clipPath><clipPath id="g"><path d="M31 48h183v10H31zm0 0"/></clipPath><clipPath id="h"><path d="M.059 111.55h287v-113h-287zm31.445-62.74.125-.883 13.039-.442-11.652 1.133 10.77 4.473zm0 0"/></clipPath><clipPath id="i"><path d="M37 73h183v22H37zm0 0"/></clipPath><clipPath id="j"><path d="M.059 111.55h287v-113h-287zm37.05-37.359.317-.816 12.785 2.707-11.59-1.766 9.387 6.993zm0 0"/></clipPath></defs><g clip-path="url(#a)"><path style="stroke:none;fill-rule:evenodd;fill:#d5d5d5;fill-opacity:1" d="M.828.242h.567l.503.063h.692l1.008.062h1.199l1.45.063 1.698.129 1.89.062 2.204.125 2.332.188 2.52.191 2.707.188 2.773.253 2.961.313 2.957.316 3.023.375 3.09.442 3.149.441 3.086.567 3.148.57 3.086.691 3.152.82 3.149.817 3.086 1.008 3.148 1.07 3.09 1.2 3.086 1.32 3.086 1.511 3.023 1.641 3.024 1.824 2.898 1.953 2.77 2.207 2.644 2.266 2.395 2.395 2.207 2.457 1.95 2.457 1.702 2.39 1.512 2.332 1.387 2.203 1.132 2.016 1.07 1.953.884 1.766.754 1.574.632 1.512.63 1.386.503 1.258.442 1.133.375 1.074.316 1.07.316 1.008.25.946.192 1.007.125 1.008.187 1.008.063 1.133v2.394l-.063 1.383-.187 1.512-.254 1.64-.375 1.762-.508 1.953-.691 2.079-.817 2.207-1.008 2.39-1.261 2.457-1.512 2.457-1.762 2.582-2.082 2.457-2.203 2.27-2.457 2.14-2.582 1.954-2.707 1.89-2.836 1.637-2.96 1.574-2.962 1.45-3.023 1.257-3.086 1.2-3.086 1.07-3.149.945-3.214.883-3.149.816-3.277.758-3.211.629-3.277.629-3.211.504-3.278.504-3.21.504-3.15.379-3.085.378-3.023.313-2.899.316-2.71.254-2.583.25-2.39.188-2.208.191-1.953.188-1.636.125-1.45.066-1.195.063-.945.062-.692.063H4.23l-.316.062H3.66"/></g><g clip-path="url(#b)"><path style="fill:none;stroke-width:4.72425;stroke-linecap:butt;stroke-linejoin:bevel;stroke:#000;stroke-opacity:1;stroke-dasharray:9.4485,9.4485;stroke-dashoffset:9.4485;stroke-miterlimit:10" d="M7.701 1113.068h5.664l5.04-.625h6.913l10.079-.625h11.992l14.492-.625 16.992-1.289 18.906-.625 22.032-1.25 23.32-1.875 25.195-1.914 27.07-1.875 27.735-2.54 29.61-3.124 29.57-3.164 30.234-3.75 30.898-4.414 31.485-4.414 30.86-5.664 31.484-5.703 30.859-6.915 31.523-8.203 31.485-8.164 30.86-10.078 31.483-10.703 30.899-11.992 30.86-13.203 30.859-15.117 30.234-16.407 30.234-18.242 28.985-19.531 27.695-22.07 26.445-22.657 23.946-23.945 22.07-24.57 19.492-24.57 17.031-23.907 15.118-23.32 13.867-22.031 11.328-20.157 10.703-19.53 8.828-17.657 7.54-15.742 6.327-15.118 6.29-13.867 5.039-12.578 4.414-11.328 3.75-10.742 3.164-10.703 3.164-10.078 2.5-9.454 1.914-10.078 1.25-10.078 1.875-10.078.625-11.328v-23.945l-.625-13.828-1.875-15.118-2.54-16.406-3.75-17.617-5.077-19.531-6.914-20.782-8.165-22.07-10.078-23.906-12.617-24.57-15.117-24.57-17.617-25.821-20.82-24.57L892.7 240.02l-24.57-21.406-25.82-19.531-27.07-18.906-28.36-16.368-29.61-15.742-29.609-14.492-30.234-12.578-30.86-11.992-30.859-10.704-31.484-9.453-32.149-8.828-31.484-8.164-32.774-7.578-32.109-6.289-32.773-6.29-32.11-5.038-32.773-5.04-32.11-5.038-31.484-3.79-30.86-3.788-30.234-3.125-28.984-3.164-27.11-2.54-25.82-2.5-23.906-1.874-22.07-1.915-19.532-1.875-16.367-1.25-14.492-.664-11.953-.625-9.453-.625-6.914-.625h-5.04L38.562 7.6h-2.54" transform="matrix(.1 0 0 -.1 .058 111.549)"/></g><path style="stroke:none;fill-rule:evenodd;fill:#e9e9e9;fill-opacity:1" d="m230.426 20.082 3.086-.125h3.086l2.96.191 2.899.313 2.77.441 2.648.442 2.457.504 2.328.504 2.145.503 2.078.504 1.887.567 1.828.504 1.765.504 1.637.503 1.574.567 1.574.504 1.512.566 1.512.633 1.512.629 1.511.691 1.45.758 1.511.817 1.45.945 1.449 1.07 1.449 1.137 1.32 1.32 1.262 1.387 1.133 1.574.945 1.766.629 1.824.379 2.016-.063 2.078-.441 2.015-.82 2.016-1.008 2.016-1.32 1.953-1.387 1.89-1.574 1.828-1.637 1.7-1.64 1.636-1.637 1.512-1.7 1.387-1.64 1.387-1.637 1.257-1.7 1.2-1.573 1.132-1.641 1.133-1.637 1.07-1.637 1.012-1.636 1.07-1.703 1.008-1.762 1.008-1.766 1.07-1.89 1.008-2.016 1.07-2.078 1.071-2.14 1.07-2.333 1.133-2.457 1.074-2.52 1.07-2.706 1.008-2.836 1.008-2.895.88-2.898.757-3.024.566-2.898.38-3.024.124-2.835-.125-2.583-.316-2.457-.504-2.203-.629-1.953-.691-1.762-.82-1.511-.758-1.387-.88-1.2-.82-1.07-.882-.945-.817-.816-.883-.82-.883-.692-.882-.633-.88-.629-.882-.629-.945-.566-1.008-.633-1.008-1.258-2.266-.629-1.261-.628-1.387-.633-1.45-.63-1.573-.628-1.7-.504-1.765-.441-1.953-.317-1.95-.125-2.082.125-2.14.442-2.266.691-2.207.883-2.078 1.008-2.016 1.074-1.828 1.066-1.637 1.075-1.574 1.07-1.387 1.008-1.257.945-1.133.945-1.074 2.707-2.707.883-.82.883-.817 1.008-.758 1.008-.816 1.195-.82 1.258-.821 1.386-.816 1.575-.946 1.765-.883 2.016-.945L216 23.61l2.457-.941 2.707-.82 2.965-.758 3.086-.63"/><path style="fill:none;stroke-width:4.72425;stroke-linecap:butt;stroke-linejoin:bevel;stroke:#000;stroke-opacity:1;stroke-dasharray:9.4485,9.4485;stroke-dashoffset:9.4485;stroke-miterlimit:10" d="m2303.678 914.67 30.86 1.25h30.859l29.609-1.914 28.984-3.125 27.696-4.414 26.484-4.414 24.57-5.04 23.282-5.039 21.445-5.039 20.781-5.039 18.867-5.664 18.282-5.039 17.656-5.039 16.367-5.039 15.742-5.664 15.742-5.04 15.118-5.663 15.117-6.328 15.117-6.29 15.117-6.913 14.492-7.579 15.118-8.164 14.492-9.453 14.492-10.703 14.492-11.367 13.203-13.203 12.617-13.867 11.329-15.743 9.453-17.656 6.289-18.242 3.789-20.156-.625-20.781-4.414-20.157-8.203-20.156-10.079-20.156-13.203-19.531-13.867-18.907-15.742-18.281-16.367-16.992-16.407-16.367-16.367-15.118-16.992-13.867-16.406-13.867-16.367-12.578-16.992-11.992-15.743-11.328-16.406-11.328-16.367-10.704-16.367-10.117-16.367-10.703-17.032-10.078-17.617-10.078-17.656-10.703-18.906-10.078-20.157-10.704-20.78-10.703-21.407-10.703-23.32-11.328-24.57-10.742-25.196-10.703-27.07-10.078-28.36-10.078-28.945-8.79-28.985-7.578-30.234-5.664-28.984-3.789-30.235-1.25-28.359 1.25-25.82 3.164-24.57 5.04-22.032 6.288-19.531 6.914-17.617 8.204-15.117 7.578-13.868 8.789-11.992 8.203-10.703 8.828-9.453 8.164-8.164 8.828-8.203 8.828-6.914 8.828-6.328 8.79-6.29 8.828-6.289 9.453-5.664 10.078-6.328 10.078-12.578 22.656-6.289 12.617-6.29 13.868-6.327 14.492-6.29 15.742-6.288 16.992-5.04 17.656-4.413 19.532-3.164 19.492-1.25 20.82 1.25 21.406 4.414 22.657 6.914 22.07 8.828 20.781 10.078 20.157 10.742 18.28 10.664 16.368 10.742 15.742 10.703 13.867 10.079 12.578 9.453 11.329 9.453 10.742 27.07 27.07 8.828 8.203 8.828 8.164 10.079 7.578 10.078 8.164 11.953 8.204 12.578 8.203 13.867 8.164 15.742 9.453 17.657 8.828 20.156 9.453 22.031 8.828 24.57 9.414 27.07 8.203 29.65 7.579 30.858 6.289zm0 0" transform="matrix(.1 0 0 -.1 .058 111.549)"/><path style="stroke:none;fill-rule:evenodd;fill:#e9e9e9;fill-opacity:1" d="m34.84 22.918 2.207.379 2.266.691 2.207.82 2.14 1.008 2.078 1.07 1.953 1.134 1.891 1.132 1.762 1.2 1.64 1.195 1.575 1.2 1.511 1.194 1.45 1.133 1.382 1.2 1.325 1.132 1.261 1.133 1.258 1.133 1.195 1.2 1.2 1.194 1.195 1.2 1.2 1.257 1.132 1.387 1.195 1.387 1.133 1.445 1.137 1.578 1.133 1.637 1.007 1.762.946 1.828.883 1.89.628 1.954.504 2.015.188 2.078-.063 1.953-.504 2.016-.816 1.887-1.074 1.765-1.258 1.512-1.387 1.387-1.449 1.258-1.574 1.07-1.512.945-1.574.82-1.574.692-1.512.633-1.512.566-1.511.442-1.512.437-1.574.38-1.512.378-1.578.379-1.637.312-1.7.38-1.765.378-1.824.38-1.953.312-2.078.379-2.145.378-2.265.313-2.395.316-2.457.188-2.457.129h-2.52l-2.39-.192-2.457-.441-2.207-.566-2.016-.692-1.762-.82-1.574-.817-1.324-.82-1.07-.758-.946-.754-.82-.757-.629-.692-.566-.629-.442-.695-.379-.629-.375-.629-.253-.629-.317-.695-.312-.754-.317-.82-.25-.946-.379-1.07-.316-1.133-.313-1.324L7 66.695l-.316-1.636-.25-1.829-.125-1.953v-2.14l.187-2.203.379-2.079.566-2.082.63-2.015.695-1.887.691-1.828.754-1.7.695-1.573.692-1.512.629-1.387.57-1.262.566-1.257.567-1.133.504-1.137.504-1.008.566-1.07.504-1.008.566-.945.63-1.008.694-.945.817-1.008.883-.945 1.007-.942 1.2-.883 1.32-.883 1.574-.82 1.703-.691 1.825-.567 2.078-.379 2.207-.187"/><path style="fill:none;stroke-width:4.72425;stroke-linecap:butt;stroke-linejoin:bevel;stroke:#000;stroke-opacity:1;stroke-dasharray:9.4485,9.4485;stroke-dashoffset:9.4485;stroke-miterlimit:10" d="m347.818 886.31 22.07-3.789 22.657-6.914 22.07-8.203 21.407-10.078 20.78-10.703 19.532-11.328 18.906-11.328 17.617-11.993 16.407-11.953 15.742-11.992 15.117-11.953 14.492-11.328 13.828-11.992 13.243-11.328 12.617-11.329 12.578-11.328 11.953-11.992 11.992-11.953 11.953-11.992 11.993-12.578 11.328-13.868 11.953-13.867 11.328-14.453 11.367-15.781 11.328-16.367 10.078-17.617 9.453-18.282 8.829-18.906 6.289-19.531 5.039-20.156 1.875-20.782-.625-19.531-5.04-20.156-8.163-18.867-10.743-17.657-12.578-15.117-13.867-13.867-14.492-12.578-15.742-10.703-15.117-9.453-15.743-8.204-15.742-6.914-15.117-6.328-15.117-5.664-15.117-4.414-15.118-4.375-15.742-3.789-15.117-3.789-15.781-3.79-16.367-3.124-16.993-3.79-17.656-3.788-18.242-3.79-19.531-3.124-20.781-3.79-21.446-3.788-22.656-3.125-23.945-3.164-24.57-1.875-24.571-1.29h-25.195l-23.907 1.915-24.57 4.414-22.07 5.664-20.156 6.914-17.618 8.203-15.742 8.164-13.242 8.203-10.703 7.578-9.453 7.54-8.203 7.577-6.29 6.914-5.663 6.29-4.415 6.953-3.789 6.289-3.75 6.289-2.539 6.289-3.164 6.953-3.125 7.539-3.164 8.203-2.5 9.453-3.789 10.703-3.164 11.329-3.125 13.242-3.164 15.117-3.164 16.367-2.5 18.281-1.25 19.532v21.406l1.875 22.031 3.789 20.781 5.664 20.82 6.29 20.157 6.952 18.867 6.914 18.281 7.54 16.993 6.953 15.742 6.914 15.117 6.289 13.867 5.703 12.617 5.664 12.578 5.664 11.328 5.039 11.368 5.039 10.078 5.664 10.703 5.04 10.078 5.663 9.453 6.29 10.078 6.952 9.453 8.164 10.079 8.829 9.453 10.078 9.414 11.992 8.828 13.203 8.828 15.742 8.203 17.031 6.914 18.243 5.664 20.78 3.79 22.071 1.874zm0 0" transform="matrix(.1 0 0 -.1 .058 111.549)"/><path style="stroke:none;fill-rule:evenodd;fill:#000;fill-opacity:1" d="M33.14 48.43a1.134 1.134 0 1 1-2.267-.002 1.134 1.134 0 0 1 2.268.002"/><path style="fill:none;stroke-width:4.72425;stroke-linecap:butt;stroke-linejoin:bevel;stroke:#000;stroke-opacity:1;stroke-miterlimit:10" d="M330.826 631.193c0-6.25-5.078-11.328-11.328-11.328-6.25 0-11.328 5.078-11.328 11.328 0 6.25 5.078 11.328 11.328 11.328 6.25 0 11.328-5.078 11.328-11.328zm0 0" transform="matrix(.1 0 0 -.1 .058 111.549)"/><path style="stroke:none;fill-rule:evenodd;fill:#000;fill-opacity:1" d="M38.809 73.941a1.134 1.134 0 1 1-2.268-.001 1.134 1.134 0 0 1 2.268.001"/><path style="fill:none;stroke-width:4.72425;stroke-linecap:butt;stroke-linejoin:bevel;stroke:#000;stroke-opacity:1;stroke-miterlimit:10" d="M387.506 376.076c0-6.25-5.078-11.328-11.328-11.328-6.25 0-11.328 5.078-11.328 11.328 0 6.289 5.078 11.367 11.328 11.367 6.25 0 11.328-5.078 11.328-11.367zm0 0" transform="matrix(.1 0 0 -.1 .058 111.549)"/><path style="stroke:none;fill-rule:evenodd;fill:#000;fill-opacity:1" d="M214.55 48.43a1.134 1.134 0 1 1-2.264-.002 1.134 1.134 0 0 1 2.265.002"/><path style="fill:none;stroke-width:4.72425;stroke-linecap:butt;stroke-linejoin:bevel;stroke:#000;stroke-opacity:1;stroke-miterlimit:10" d="M2144.928 631.193c0-6.25-5.04-11.328-11.328-11.328-6.25 0-11.328 5.078-11.328 11.328 0 6.25 5.078 11.328 11.328 11.328a11.311 11.311 0 0 0 11.328-11.328zm0 0" transform="matrix(.1 0 0 -.1 .058 111.549)"/><path style="stroke:none;fill-rule:evenodd;fill:#000;fill-opacity:1" d="M220.223 76.773a1.135 1.135 0 1 1-2.27.003 1.135 1.135 0 0 1 2.27-.003"/><path style="fill:none;stroke-width:4.72425;stroke-linecap:butt;stroke-linejoin:bevel;stroke:#000;stroke-opacity:1;stroke-miterlimit:10" d="M2201.647 347.756c0-6.29-5.079-11.368-11.368-11.368-6.25 0-11.328 5.079-11.328 11.368 0 6.25 5.078 11.328 11.328 11.328 6.29 0 11.368-5.078 11.368-11.328zm0 0" transform="matrix(.1 0 0 -.1 .058 111.549)"/><g clip-path="url(#c)"><g clip-path="url(#d)" clip-rule="evenodd"><path style="fill:none;stroke-width:4.72425;stroke-linecap:butt;stroke-linejoin:bevel;stroke:#000;stroke-opacity:1;stroke-miterlimit:10" d="M319.498 631.193h.625l1.25.625 2.54.625 3.75 1.29 5.038 1.874 7.578 2.54 8.829 2.5 11.328 3.788 13.242 3.79 15.117 5.038 17.617 5.04 18.906 6.289 20.782 5.664 22.03 6.914 23.946 6.953 25.196 6.914 26.445 7.578 27.11 6.914 28.359 7.54 28.945 6.952 30.234 7.54 30.86 6.952 31.523 6.914 32.11 6.915 33.398 6.328 34.023 6.289 35.899 6.289 36.523 5.039 37.813 5.664 39.023 5.039 40.938 4.414 42.226 3.79 43.477 3.163 45.351 3.125 46.602 1.914 47.226 1.25 47.891.625 50.39-.625 48.477-1.25 47.266-2.539 45.976-3.125 42.852-3.789 41.563-4.414 39.062-4.414 37.149-5.664 35.273-5.664 34.023-6.29 32.11-6.327 31.484-6.914 29.61-6.953 28.359-6.915 27.734-7.539 26.446-7.578 25.82-8.203 24.57-7.539 23.946-7.578 22.656-7.54 21.406-7.577 20.156-7.54 18.282-6.288 17.656-6.953 15.078-5.665 13.867-5.039 11.992-5.039 10.078-3.789 8.164-3.75 6.954-2.539 4.414-1.875 7.539-3.164" transform="matrix(.1 0 0 -.1 .058 111.549)"/></g></g><path style="fill:none;stroke-width:4.72425;stroke-linecap:butt;stroke-linejoin:miter;stroke:#000;stroke-opacity:1;stroke-miterlimit:10" d="m2030.318 704.904 93.829-69.922-115.899 17.617" transform="matrix(.1 0 0 -.1 .058 111.549)"/><g clip-path="url(#e)"><g clip-path="url(#f)" clip-rule="evenodd"><path style="fill:none;stroke-width:4.72425;stroke-linecap:butt;stroke-linejoin:bevel;stroke:#000;stroke-opacity:1;stroke-miterlimit:10" d="M376.178 376.076h.625l1.25.625 1.914.664 3.789.625 5.039 1.25 6.914 1.875 8.828 1.914 10.078 2.5 12.578 2.54 14.493 3.75 16.367 3.788 18.281 3.79 19.531 4.413 21.407 4.414 22.695 5.04 23.945 5.038 25.195 5.04 26.446 5.039 27.07 5.039 27.734 5.039 28.946 5.039 28.984 5.039 30.86 4.414 30.898 5.039 32.11 4.414 33.398 3.75 34.61 3.79 35.312 3.788 37.148 3.79 38.399 3.124 39.726 2.54 41.563 2.5 43.437 1.913 44.727 1.25 45.976.625 47.266.625 47.89-.625 50.391-1.25 49.102-1.914 47.89-2.5 45.977-3.164 43.476-3.125 42.188-3.789 39.687-4.414 38.438-5.039 36.523-4.414 34.649-5.664 33.36-5.04 32.148-5.663 30.859-5.664 30.234-6.328 28.36-5.664 28.32-6.29 26.445-6.289 26.485-6.289 24.57-6.328 23.906-5.664 22.696-6.289 21.406-5.664 19.531-5.664 18.281-5.04 16.368-4.413 15.117-4.414 12.578-3.79 10.742-3.163 8.79-2.5 6.952-2.54 5.664-1.25 7.54-2.5" transform="matrix(.1 0 0 -.1 .058 111.549)"/></g></g><path style="fill:none;stroke-width:4.72425;stroke-linecap:butt;stroke-linejoin:miter;stroke:#000;stroke-opacity:1;stroke-miterlimit:10" d="m2081.96 413.888 98.241-63.007-116.523 8.828" transform="matrix(.1 0 0 -.1 .058 111.549)"/><g clip-path="url(#g)"><g clip-path="url(#h)" clip-rule="evenodd"><path style="fill:none;stroke-width:4.72425;stroke-linecap:butt;stroke-linejoin:bevel;stroke:#000;stroke-opacity:1;stroke-miterlimit:10" d="M2133.6 631.193h-.625l-1.25-.625h-1.914l-3.75-.625-4.414-1.25-6.954-1.289-8.164-1.875-10.078-1.875-11.992-2.539-13.867-2.5-15.078-3.164-17.657-3.164-18.28-3.125-20.157-3.79-21.406-3.788-22.656-3.75-23.946-3.79-24.57-3.788-25.82-3.79-26.446-3.788-27.734-3.75-28.36-3.79-29.609-3.789-31.484-3.125-32.11-3.164-34.023-3.164-35.274-3.125-37.148-2.539-39.062-2.5-41.563-1.914-42.851-1.875-45.977-1.875-47.266-.664-48.476-1.25h-98.281l-47.227.625-46.602 1.29-45.351 1.25-43.477 1.874-42.226 1.914-40.938 2.5-39.023 2.54-37.813 2.5-36.523 2.538-35.899 3.125-34.023 3.164-33.399 3.125-32.109 3.164-31.523 3.79-30.86 3.789-30.234 3.125-28.945 3.789-28.36 3.789-27.11 3.789-26.444 3.125-25.196 3.789-23.945 3.789-22.031 3.125-20.782 3.164-18.906 2.5-17.617 3.164-15.117 1.875-13.242 2.54-11.328 1.25-8.829 1.913-7.578 1.25-5.039.625-8.164 1.25" transform="matrix(.1 0 0 -.1 .058 111.549)"/></g></g><path style="fill:none;stroke-width:4.72425;stroke-linecap:butt;stroke-linejoin:miter;stroke:#000;stroke-opacity:1;stroke-miterlimit:10" d="m437.272 584.592-107.696 44.726L446.1 640.646" transform="matrix(.1 0 0 -.1 .058 111.549)"/><g clip-path="url(#i)"><g clip-path="url(#j)" clip-rule="evenodd"><path style="fill:none;stroke-width:4.72425;stroke-linecap:butt;stroke-linejoin:bevel;stroke:#000;stroke-opacity:1;stroke-miterlimit:10" d="M2190.28 347.756h-.626l-1.25-.625-2.5-1.29-3.164-1.25-5.664-1.874-6.953-3.164-8.789-3.165-10.742-4.375-12.578-5.039-15.117-5.703-16.368-5.664-18.28-6.914-19.532-6.914-21.406-7.578-22.696-7.54-23.906-8.202-24.57-7.578-26.485-8.164-26.445-8.204-28.32-7.539-28.36-7.578-30.234-7.539-30.86-6.953-32.148-6.914-33.36-6.29-34.648-6.327-36.523-5.664-38.438-5.04-39.687-4.413-42.188-4.414-43.476-3.125-45.977-2.54-47.89-1.874-49.102-.625h-50.39l-47.891 1.25-47.266 1.875-45.976 3.164-44.727 3.789-43.437 4.414-41.563 5.039-39.726 5.039-38.399 6.289-37.148 6.289-35.313 6.289-34.61 6.953-33.398 7.54-32.109 7.577-30.898 7.54-30.86 8.203-28.984 8.203-28.946 8.164-27.734 8.203-27.07 8.203-26.446 8.789-25.195 8.203-23.945 7.54-22.695 8.202-21.407 7.578-19.53 6.915-18.282 6.289-16.367 6.289-14.493 5.039-12.578 4.414-10.078 4.414-8.828 3.164-6.914 2.5-5.04 1.914-7.577 3.125" transform="matrix(.1 0 0 -.1 .058 111.549)"/></g></g><path style="fill:none;stroke-width:4.72425;stroke-linecap:butt;stroke-linejoin:miter;stroke:#000;stroke-opacity:1;stroke-miterlimit:10" d="m479.498 302.404-93.867 69.922 115.898-17.656" transform="matrix(.1 0 0 -.1 .058 111.549)"/><use xlink:href="#k" x="8.9" y="17.243" style="fill:#000;fill-opacity:1"/><use xlink:href="#l" x="129.542" y="72.806" style="fill:#000;fill-opacity:1"/><use xlink:href="#m" x="128.081" y="52.143" style="fill:#000;fill-opacity:1"/><use xlink:href="#n" x="22.706" y="54.096" style="fill:#000;fill-opacity:1"/><use xlink:href="#o" x="213.872" y="37.087" style="fill:#000;fill-opacity:1"/><use xlink:href="#p" x="228.215" y="37.087" style="fill:#000;fill-opacity:1"/><use xlink:href="#l" x="240.694" y="37.087" style="fill:#000;fill-opacity:1"/><use xlink:href="#q" x="246.719" y="37.087" style="fill:#000;fill-opacity:1"/><use xlink:href="#r" x="250.7" y="37.087" style="fill:#000;fill-opacity:1"/><use xlink:href="#s" x="259.117" y="37.087" style="fill:#000;fill-opacity:1"/><use xlink:href="#t" x="222.408" y="80.806" style="fill:#000;fill-opacity:1"/><use xlink:href="#u" x="28.629" y="79.609" style="fill:#000;fill-opacity:1"/><use xlink:href="#l" x="216.64" y="57.498" style="fill:#000;fill-opacity:1"/><use xlink:href="#q" x="222.665" y="57.498" style="fill:#000;fill-opacity:1"/><use xlink:href="#n" x="227.997" y="57.498" style="fill:#000;fill-opacity:1"/><use xlink:href="#s" x="234.453" y="57.498" style="fill:#000;fill-opacity:1"/><use xlink:href="#r" x="28.116" y="39.355" style="fill:#000;fill-opacity:1"/><use xlink:href="#l" x="129.29" y="26.945" style="fill:#000;fill-opacity:1"/><use xlink:href="#m" x="127.828" y="102.666" style="fill:#000;fill-opacity:1"/></svg>